<svg width="355" height="22" viewBox="0 0 355 22" fill="none" xmlns="http://www.w3.org/2000/svg">
<g clip-path="url(#clip0)">
<path d="M14.6 20.922L1.59999 21.022L0.039993 18.772C-1.36001 16.712 32.75 14.582 102.37 12.392L103.25 10.672L92.4 10.732L19.99 12.992L19.21 11.872C29.12 11.562 33.81 10.952 33.28 10.042L28.94 10.072L7.57999 10.812L5.12999 10.282L4.64999 9.72205L75.98 5.77205L78.47 6.34205L89.02 5.72205L91.17 5.68205L113.14 6.07205L132.36 5.38205L134.55 5.39205L134.85 5.95205L133.14 6.50205L133.44 7.06205L225.85 5.23205L225.37 4.67205L197.22 4.91205L196.44 3.79205L198.59 3.75205L337.92 0.472046L350.01 5.46205L346.46 6.62205L351.87 8.27205L354.69 12.202L351.14 13.362L344.62 13.392C300.43 13.712 190.42 16.222 14.6 20.922ZM296.31 6.42205L295.83 5.86205L293.68 5.90205L244.78 7.39205L245.04 7.91205L262.71 8.38205L296.31 6.42205ZM249.22 4.51205L248.92 3.95205L238.1 4.05205L238.4 4.61205L249.22 4.51205ZM217.37 8.71205L216.89 8.15205L197.37 8.28205L200.04 8.85205L200.34 9.41205L217.37 8.71205ZM186.84 5.54205L152.17 5.81205L151.39 4.69205L186.06 4.42205L186.84 5.54205Z" fill="black"/>
</g>
<defs>
<clipPath id="clip0">
<rect y="0.472046" width="354.7" height="20.55" fill="white"/>
</clipPath>
</defs>
</svg>
