<svg width="634" height="134" viewBox="0 0 634 134" fill="none" xmlns="http://www.w3.org/2000/svg">
<path d="M18.9627 36.0802C18.8695 37.6094 19.8411 38.3562 21.8772 38.3207L23.3229 41.3506L22.5277 42.1283L23.2913 42.1149C19.8264 52.9583 17.8133 65.4687 17.252 79.646L17.0625 84.232L17.8394 84.9822L17.8078 85.7466L17.0127 86.5243L17.7762 86.5109L16.9811 87.2886L17.5235 92.6256L17.4603 94.1543C14.793 97.4957 13.4151 100.066 13.3267 101.864L10.2725 101.918L6.56278 100.455L7.54744 95.0911L4.57466 92.0879L5.7671 80.6102L6.29076 66.8529L7.91263 64.5332L8.03898 61.4759L7.30701 60.7249L7.3386 59.9605L8.86571 59.9339L8.89729 59.1695L8.16533 58.4185L11.0112 43.8569L10.2477 43.8702L11.0428 43.0925L11.1874 38.5073L10.4555 37.7563L10.487 36.9919L18.9627 36.0802ZM10.7585 49.9716L10.5823 55.3212L11.3459 55.3079L11.5221 49.9583L10.7585 49.9716ZM9.72402 57.6275L9.5345 62.2136L10.2981 62.2002L10.4876 57.6142L9.72402 57.6275ZM8.67618 64.5199L8.53158 69.1052L9.29513 69.0918L9.43974 64.5066L8.67618 64.5199ZM9.07456 95.0645L8.91662 98.8862L10.462 97.3316L10.6017 95.0378L9.07456 95.0645ZM38.8616 35.8227L44.2864 40.3108C44.2598 38.7836 44.7555 38.0112 45.7736 37.9934L46.5371 37.9801L57.7067 65.2815L57.7334 66.8086L56.9698 66.822L55.3627 62.2673L54.5992 62.2806L54.6258 63.8077L60.1973 76.6949L60.9609 76.6815C62.766 63.411 65.4592 49.5409 69.0406 35.0713L71.3579 36.5584L73.6352 35.7549L78.2565 37.9656L78.2699 38.7291C76.7428 38.7558 75.997 39.7872 76.0325 41.8233L76.7961 41.81L77.573 42.5602L78.3365 42.5469L79.0334 38.7158L80.5605 38.6892L80.5739 39.4527L79.8236 40.2296L80.6005 40.9798L80.6139 41.7434C76.9865 53.578 73.8375 70.5112 71.167 92.5429L69.6398 92.5696L70.9537 80.326C69.9356 80.3438 68.4929 85.2063 66.6256 94.9136C64.7658 96.4736 62.9975 97.2683 61.3207 97.2975L61.3474 98.8246L60.5838 98.838C60.566 97.8199 59.5391 97.3286 57.5029 97.3642L57.4096 92.0193C57.3694 89.7136 52.0569 77.0766 41.4721 54.1081L40.7086 54.1214C38.8308 63.2298 37.2624 75.4778 36.0034 90.8654L35.2265 90.1151C32.188 91.0667 30.6831 92.366 30.7118 94.0129L29.1847 94.0395C28.1332 92.1409 27.5664 88.8411 27.4844 84.14L26.7208 84.1533L26.8408 91.0253L25.3136 91.0519L24.4834 87.2475C24.242 73.4137 27.003 56.5621 32.7665 36.6929L38.8616 35.8227ZM28.505 55.0982L28.5183 55.8617L29.2952 56.612L28.545 57.3889L28.5716 58.916L29.3352 58.9026L30.0454 55.8351L29.2686 55.0849L28.505 55.0982ZM57.7334 66.8086C59.0509 66.7856 60.1045 68.804 60.8942 72.8638L60.9075 73.6273L60.144 73.6406L57.7334 66.8086ZM105.49 33.1771C106.855 34.1716 111.146 34.6059 118.362 34.48L118.33 35.2443L112.986 35.3376L112.954 36.1019C119.332 35.9906 123.341 37.4482 124.981 40.4747L124.918 42.0034L121.1 42.07L121.069 42.8344L126.382 43.5054L126.35 44.2698L121.769 44.3497L121.738 45.1141C123.265 45.0874 124.007 45.5836 123.965 46.6028C114.892 46.7611 106.85 50.2113 99.8393 56.9531L99.8077 57.7175C109.705 60.1805 117.607 65.8983 123.515 74.8708L123.483 75.6351C121.742 82.2551 116.653 88.4542 108.218 94.2325L103.56 95.0776L103.528 95.8419L105.055 95.8153C105.02 97.1937 100.375 98.8024 91.1219 100.641L91.1851 99.1125L95.0028 99.0459L95.0793 98.2808C91.8155 98.3378 88.835 96.6076 86.1378 93.0903C83.8417 91.9623 82.6649 89.7514 82.6074 86.4576C82.6022 86.1581 82.6117 85.8435 82.6359 85.5136L84.9897 83.9449L87.2172 85.4336L88.7443 85.407C103.078 82.9103 110.409 78.1996 110.737 71.2749C104.665 68.3257 100.656 66.8681 98.71 66.9021L98.6784 67.6664L91.1243 64.7431L91.8562 65.4941L91.838 67.022C85.4085 62.4617 82.2471 58.9525 82.354 56.4946L88.1411 45.7005L92.0852 42.5765L92.022 44.1052L105.49 33.1771ZM95.4292 53.975L95.3976 54.7393L108.726 46.105L114.897 44.4697L114.96 42.941L113.433 42.9677C105.431 46.1026 99.4294 49.7717 95.4292 53.975ZM100.198 85.207L100.961 85.1937L102.551 83.6384L101.788 83.6517L100.198 85.207ZM113.942 84.9671L110.729 88.8421L111.493 88.8288L114.705 84.9538L113.942 84.9671ZM104.481 91.2426L104.495 92.0061L105.258 91.9928L108.407 89.6465L104.481 91.2426ZM95.9061 96.7388L95.8745 97.5031L98.9287 97.4498L102.778 96.6188L102.765 95.8553L102.001 95.8686L95.9061 96.7388ZM152.733 34.509L153.497 34.4957C160.893 34.3666 166.545 37.3231 170.455 43.3651L170.468 44.1287L168.941 44.1553L169.718 44.9056L169.731 45.6691C166.671 45.3631 165.135 44.8807 165.123 44.222C153.236 44.4295 144.434 50.6934 138.719 63.0138L137.285 68.3853L139.829 82.8529L142.119 82.8129C148.467 82.7021 155.514 77.9964 163.259 68.6958L164.022 68.6824L164.036 69.446C158.752 77.3558 152.724 82.0438 145.95 83.5098L145.964 84.2734L146.727 84.2601C152.057 84.167 158.595 79.4702 166.34 70.1696L168.684 73.1838L168.724 75.4745C168.753 77.1213 165.001 81.0058 157.47 87.1277L156.72 87.9046L155.957 87.9179L155.983 89.445C164.563 85.072 168.837 81.9422 168.804 80.0558L170.331 80.0291L170.344 80.7927C164.07 88.5401 156.755 92.4867 148.401 92.6325L148.414 93.3961L152.232 93.3294L155.273 92.5126L156.037 92.4993L156.05 93.2628L146.913 94.9049C143.05 94.9724 138.929 92.2587 134.55 86.764L134.564 87.5275L138.488 93.5694L138.501 94.288L136.21 94.328C131.422 91.1767 128.552 87.1682 127.598 82.3026L126.662 72.3897C126.439 59.6338 128.842 51.4448 133.871 47.8227L133.884 48.5862L129.436 56.3017L129.449 57.0653L130.213 57.052C130.128 52.2011 136.371 45.2181 148.942 36.1028L146.664 36.9063L145.901 36.9196L145.888 36.1561L152.733 34.509ZM144.387 37.7098L145.151 37.6965L145.164 38.4601L139.859 40.844C139.841 39.826 141.351 38.7812 144.387 37.7098ZM137.608 43.1747L137.622 43.9382L133.871 47.8227L133.857 47.0591L137.608 43.1747ZM129.086 79.9853L129.126 82.276L129.942 85.3168L130.706 85.3035L130.693 84.54L129.849 79.972L129.086 79.9853ZM187.472 32.4649L196.635 32.305C207.36 34.1246 212.784 38.6126 212.909 45.7691L212.989 50.3504L205.54 61.1735L206.304 61.1602L213.82 54.1549L213.846 55.682C211.342 61.5365 208.1 65.412 204.12 67.3086L199.565 68.9157L199.618 71.9699C200.726 71.9506 206.187 78.4747 216 91.5424C218.05 92.3453 220.122 94.3459 222.215 97.5443L222.228 98.3078L218.357 95.3202L218.37 96.0838C220.963 98.7343 222.271 100.748 222.295 102.126L221.531 102.139L217.753 104.496L216.99 104.51L215.423 102.246L214.672 103.022L213.909 103.036C203.583 94.8892 196.31 86.6145 192.09 78.2116L188.139 70.6427C186.342 70.6741 185.377 73.7461 185.244 79.8587C185.662 84.9433 185.462 88.0469 184.643 89.1694C183.167 90.4232 182.934 91.6553 183.944 92.8658L183.97 94.3929L181.68 94.4329C180.662 94.4506 180.135 93.4415 180.099 91.4053L179.336 91.4186C179.371 93.4548 178.426 94.2351 176.501 93.7595L173.054 89.3268L173.831 82.3493L173.778 79.295L177.986 57.8355L178.749 57.8222L178.803 60.8764L179.566 60.8631L183.104 44.7618C182.086 44.7795 181.595 45.8065 181.63 47.8427L180.867 47.856L180.84 46.3289L176.259 46.4088L176.245 45.6453C176.228 44.6272 177.741 43.837 180.787 43.2746L180.773 42.5111L179.246 42.5377L174.692 44.1448L173.928 44.1582C173.91 43.1401 174.919 42.6133 176.956 42.5777L176.942 41.8142C174.906 41.8497 173.875 41.1039 173.848 39.5768L187.472 32.4649ZM188.715 59.9396L189.479 59.9263C197.407 55.954 202.935 51.7839 206.064 47.4162L206.037 45.8891C206.007 44.1523 202.922 42.424 196.781 40.7041L192.227 42.3112L188.715 59.9396ZM203.653 40.5841C204.712 42.872 205.752 44.1268 206.774 44.3486L206.748 42.8215L203.653 40.5841ZM208.315 45.0855L207.618 48.9166L208.381 48.9033L209.132 48.1264L209.078 45.0722L208.315 45.0855ZM180.103 47.8693L180.867 47.856L180.907 50.1466L180.196 53.2142L179.433 53.2275L179.393 50.9369L180.103 47.8693ZM206.117 50.4704L202.393 55.8819L203.156 55.8686L206.894 51.2206L206.881 50.4571L206.117 50.4704ZM213.78 51.8642L215.307 51.8376L214.583 54.1416L213.82 54.1549L213.78 51.8642ZM178.696 54.768L179.46 54.7546L179.513 57.8089L178.749 57.8222L178.696 54.768ZM177.342 64.7208L177.395 67.7751L178.159 67.7617L178.106 64.7075L177.342 64.7208ZM200.649 87.2277L200.662 87.9912L203.769 90.9921C202.741 88.7038 201.701 87.4489 200.649 87.2277ZM204.56 92.5059L204.573 93.2695L207.667 95.5068L207.654 94.7433L204.56 92.5059ZM234.196 32.3233C234.102 33.8525 235.074 34.5993 237.11 34.5638L238.556 37.5937L237.761 38.3714L238.524 38.358C235.059 49.2014 233.046 61.7118 232.485 75.8891L232.295 80.4751L233.072 81.2253L233.041 81.9897L232.245 82.7674L233.009 82.754L232.214 83.5317L232.756 88.8687L232.693 90.3974C230.026 93.7387 228.648 96.3088 228.56 98.1075L225.505 98.1608L221.796 96.6979L222.78 91.3342L219.807 88.331L221 76.8533L221.524 63.096L223.145 60.7763L223.272 57.719L222.54 56.968L222.571 56.2036L224.099 56.177L224.13 55.4126L223.398 54.6616L226.244 40.1L225.481 40.1133L226.276 39.3356L226.42 34.7504L225.688 33.9994L225.72 33.235L234.196 32.3233ZM225.991 46.2147L225.815 51.5643L226.579 51.5509L226.755 46.2014L225.991 46.2147ZM224.957 53.8706L224.767 58.4567L225.531 58.4433L225.72 53.8573L224.957 53.8706ZM223.909 60.763L223.764 65.3483L224.528 65.3349L224.673 60.7497L223.909 60.763ZM224.307 91.3076L224.149 95.1293L225.695 93.5747L225.835 91.2809L224.307 91.3076ZM241.864 8.33229C241.986 8.47991 242.05 8.70344 242.055 9.00288C242.385 8.99713 242.598 9.21805 242.696 9.66563C242.705 10.1747 241.118 11.9097 237.934 14.8706C237.938 15.0503 237.409 15.6585 236.349 16.6954C235.821 17.3337 235.559 17.7875 235.564 18.057C239.269 14.0985 241.655 11.8254 242.723 11.2377L242.813 11.2361L242.731 11.6868L242.914 11.8633C242.922 12.3125 242.498 12.9339 241.644 13.7276L242.141 13.8986L242.94 13.3455L243.031 13.4338L243.034 13.6134C242.858 13.7962 242.729 14.113 242.647 14.5637C240.025 17.0955 238.172 19.0598 237.088 20.4565C234.914 22.8907 233.735 24.7983 233.549 26.1793L233.374 26.452C232.294 26.3211 231.747 25.9113 231.735 25.2226L231.416 24.9586L231.413 24.7789L231.497 24.4629L231.408 24.4645C230.659 24.4776 230.106 23.6635 229.747 22.0224C230.465 20.2427 231.677 18.4244 233.381 16.5675C234.642 14.988 236.938 12.7015 240.27 9.70796L241.864 8.33229ZM239.573 16.0551L239.575 16.1898L239.665 16.1883L240.369 15.3673L240.235 15.3696L239.573 16.0551ZM239.042 16.5586L239.044 16.6484L239.265 16.4648L239.264 16.375L239.042 16.5586ZM238.249 17.4261L238.25 17.5159L238.56 17.2409L238.558 17.1511L238.249 17.4261ZM237.983 17.6553L237.853 17.9272L238.078 17.9233L238.073 17.6538L237.983 17.6553ZM234.551 19.2428L235.257 18.4667L235.167 18.4683C234.751 18.6553 234.546 18.9134 234.551 19.2428ZM269.589 29.1446L273.292 30.2481L273.216 31.0132L269.436 30.6748L269.589 29.1446ZM254.99 29.3095L257.132 31.0693L264.126 30.1834L264.814 31.0251L265.579 31.1016L267.906 30.5667C276.486 31.3155 282.743 35.4596 286.679 42.9988C287.699 43.1008 288.096 44.4118 287.871 46.9317L287.38 52.2868L285.85 52.1338L285.926 51.3687L286.921 49.1498L286.232 48.3082L287.029 47.6203L286.34 46.7787L284.856 46.6698C284.577 49.5801 281.725 52.6401 276.3 55.8499L276.224 56.615L276.988 56.6466C278.908 56.8527 281.571 55.8327 284.977 53.5868L284.869 55.1162L280.584 59.3245C283.404 59.5748 287.6 64.0393 293.173 72.7181C292.671 78.298 284.463 84.1922 268.546 90.4006C261.747 93.844 256.488 95.4035 252.768 95.079L251.39 93.3509L250.626 93.3193C250.503 94.849 249.421 95.5119 247.381 95.3078C247.226 96.7183 246.729 97.4309 245.89 97.4455L245.621 97.4502C244.601 97.3482 244.269 95.5269 244.627 91.9863L243.863 91.9547L242.759 95.6581L241.994 95.5816C242.445 90.5417 241.906 87.9602 240.376 87.8372L239.917 84.7002L240.759 84.0115L240.025 83.1707L246.873 50.7923L246.185 49.9956L246.951 50.0721L246.263 49.2754L248.086 37.9216L248.118 37.1572L247.079 31.694L247.843 31.7256C250.661 30.1189 252.878 29.3015 254.495 29.2732C254.675 29.2701 254.84 29.2822 254.99 29.3095ZM273.305 38.6944L273.228 39.4596L279.272 40.7918C279.344 39.7722 278.63 39.2005 277.13 39.077L273.305 38.6944ZM258.75 46.5415L259.069 51.9273L266.017 51.0423L265.909 52.5717L277.097 47.4792L277.021 48.2443L271.296 52.298C277.584 50.451 280.931 47.4422 281.337 43.2718L279.807 43.1188C279.551 45.6392 278.674 46.8377 277.174 46.7141L277.282 45.1846L276.518 45.153L277.512 42.8892L278.2 43.7309L278.966 43.8523L279.043 43.0872C277.155 41.3529 274.172 40.3117 270.092 39.9636C263.011 39.2785 259.231 41.4711 258.75 46.5415ZM276.518 45.153L276.486 45.9174L274.802 47.2497L274.038 47.2181L276.518 45.153ZM273.329 63.27L273.297 63.9894L280.781 65.4762L281.546 65.5078L281.622 64.7427L278.639 63.7165L273.329 63.27ZM256.219 66.2644L254.165 79.8687L254.854 80.7104L255.619 80.7869C259.279 81.1423 267.503 77.8088 280.29 70.7864L281.973 69.4092C281.847 67.3446 279.909 66.1504 276.16 65.8265L270.084 65.2137L256.219 66.2644ZM283.579 68.7521L281.788 71.7038L285.034 69.7152L284.345 68.8736L283.579 68.7521ZM288.628 72.3032C288.476 73.8934 283.512 77.784 273.736 83.9751C284.916 79.287 290.605 75.7282 290.802 73.2986L290.037 73.2221L289.393 72.3797L288.628 72.3032ZM334.711 30.2992L338.438 32.7951C337.439 37.3354 335.531 39.5402 332.713 39.4097L312.786 40.6561L312.723 42.1848L316.501 42.3884L321.119 41.8585L321.853 42.6993L322.617 42.7309L327.999 42.1877L329.529 42.2958L329.497 43.0601L311.788 45.2113L310.568 55.1169L311.332 55.1485L332.054 53.1245L332.742 53.9212L332.71 54.6855L331.181 54.5774L331.194 55.341L336.469 56.417L336.438 57.1814C335.38 60.0453 328.114 62.4785 314.64 64.4809L306.964 64.8844L307.696 65.6354L304.183 75.4014L303.419 75.4147L303.748 68.5349L302.984 68.5033L301.687 79.1291C316.892 76.8269 327.643 75.8305 333.938 76.14L337.684 77.108L337.666 78.6359L336.137 78.5727L336.825 79.3694L336.73 81.6624C335.297 83.6044 332.197 84.4672 327.43 84.2509L327.399 85.0152L333.514 85.3129L333.406 86.8423L297.969 92.6726L297.205 92.641C294.74 92.1449 293.499 91.3728 293.48 90.3248L293.478 90.1901L293.573 87.897L295.54 79.5958L294.807 78.7999L296.335 78.8182L296.132 82.6406L296.897 82.7171C297.152 80.1667 297.729 78.9286 298.629 79.0028L297.896 78.1619L298.302 70.5619L296.773 70.4538L295.806 74.2447L296.646 73.5111L297.411 73.5427L297.176 78.1295L296.411 78.053L296.507 75.8049L295.742 75.7733L295.679 77.302L294.915 77.2704L294.978 75.7418L297.179 62.8088L296.414 62.7772L298.102 59.0636L297.369 58.2677L297.4 57.5033L298.837 44.5837L299.57 45.3796L300.334 45.4112L300.398 43.8826L299.836 40.0285L300.93 33.1802L301.024 30.8872L301.789 30.9637L302.522 31.7596L303.318 31.0269L304.083 31.1034L304.815 31.8544L305.611 31.1217L307.905 31.2613L334.711 30.2992ZM297.07 64.3383L296.804 69.6894L297.569 69.721L297.836 64.4148L297.07 64.3383ZM322.285 64.8866L323.049 64.8733L322.972 65.6384L309.163 67.2722L308.429 66.4314L308.461 65.7119L315.373 65.2768L315.341 66.0411L322.285 64.8866ZM385.216 28.0249L387.52 28.7484L387.546 30.2755L385.256 30.3155L386.823 32.5795C385.759 35.1441 381.709 36.4877 374.673 36.6106L369.341 37.4674L368.617 39.7714L369.381 39.7581C367.917 43.4079 365.147 59.7504 361.071 88.7856L363.535 98.6718L362.772 98.6851C361.634 98.705 360.571 96.1776 359.584 91.1029L360.214 83.454L360.201 82.6905L359.438 82.7038L359.464 84.2309C357.937 84.2575 357.182 84.7799 357.2 85.798L357.214 86.5615L358.954 98.7518L358.967 99.5153L357.44 99.542L354.346 97.3046L353.596 98.0815L352.832 98.0948C350.719 93.7287 349.634 89.9287 349.578 86.6948L350.355 87.4451L351.118 87.4317L349.498 82.1135L351.775 81.31L351.709 77.4922L350.182 77.5188L350.168 76.7553C351.695 76.7286 352.45 76.2063 352.432 75.1882L352.419 74.4246L350.892 74.4513C350.821 70.379 351.549 68.3295 353.076 68.3029L352.903 58.3766C353.699 57.6439 354.623 52.2812 355.677 42.2886L350.345 43.1455L339.642 42.5685L339.629 41.805L343.433 40.9748L343.447 41.7383L344.197 40.9615L355.65 40.7615L355.61 38.4709L343.42 40.2112L342.643 39.461L341.88 39.4743L337.312 40.3179L334.994 38.8307L335.691 34.9996L334.914 34.2494C334.87 31.7042 337.902 30.3783 344.01 30.2717L385.216 28.0249ZM380.674 30.3955L380.688 31.159L383.742 31.1057L383.729 30.3422L380.674 30.3955ZM353.169 73.6477L351.935 90.4726L353.462 90.446L352.632 86.6415L352.606 85.1144L354.093 82.7971L353.329 82.8104L354.079 82.0335L354.066 81.27L353.289 80.5197L353.276 79.7562L354.75 76.6753L353.933 73.6344L353.169 73.6477ZM422.205 28.772L425.933 31.2679C424.934 35.8081 423.025 38.013 420.208 37.8825L400.281 39.1289L400.218 40.6575L403.995 40.8612L408.614 40.3313L409.347 41.1721L410.112 41.2037L415.494 40.6605L417.023 40.7686L416.991 41.5329L399.282 43.6841L398.062 53.5897L398.827 53.6213L419.548 51.5972L420.236 52.3939L420.205 53.1583L418.675 53.0502L418.689 53.8137L423.964 54.8898L423.932 55.6542C422.874 58.5181 415.608 60.9513 402.135 62.9537L394.459 63.3572L395.191 64.1082L391.677 73.8742L390.914 73.8875L391.243 67.0076L390.478 66.9761L389.181 77.6019C404.387 75.2997 415.137 74.3033 421.433 74.6128L425.179 75.5807L425.16 77.1086L423.632 77.0455L424.32 77.8422L424.225 80.1352C422.791 82.0772 419.691 82.94 414.925 82.7237L414.893 83.488L421.009 83.7856L420.901 85.3151L385.464 91.1454L384.7 91.1138C382.235 90.6177 380.993 89.8456 380.975 88.7976L380.973 88.6628L381.067 86.3698L383.034 78.0686L382.301 77.2727L383.829 77.2909L383.626 81.1134L384.392 81.1899C384.647 78.6395 385.224 77.4014 386.124 77.4755L385.39 76.6347L385.797 69.0346L384.267 68.9265L383.3 72.7174L384.141 71.9839L384.905 72.0155L384.671 76.6023L383.906 76.5258L384.001 74.2777L383.237 74.2461L383.174 75.7748L382.409 75.7432L382.473 74.2145L384.673 61.2816L383.909 61.25L385.596 57.5364L384.863 56.7405L384.895 55.9761L386.332 43.0565L387.065 43.8524L387.829 43.884L387.892 42.3553L387.331 38.5013L388.424 31.653L388.519 29.36L389.284 29.4365L390.017 30.2324L390.813 29.4997L391.578 29.5762L392.31 30.3272L393.106 29.5944L395.399 29.7341L422.205 28.772ZM384.565 62.811L384.299 68.1622L385.063 68.1938L385.33 62.8876L384.565 62.811ZM409.78 63.3594L410.543 63.346L410.467 64.1112L396.657 65.745L395.924 64.9041L395.956 64.1847L402.867 63.7496L402.836 64.5139L409.78 63.3594ZM482.061 24.2228C482.417 25.7441 484.466 26.4722 488.209 26.4068L494.784 53.0246L500.129 52.9313L500.142 53.6949L495.574 54.5384L495.588 55.302C497.115 55.2753 497.887 55.771 497.905 56.7891L504.013 56.6825L504.027 57.446C504.046 58.5839 501.519 59.6464 496.444 60.6335L498.051 65.1882L497.328 67.4922L498.171 72.0602L497.421 72.8371L498.185 72.8238L497.435 73.6007L498.358 82.75L498.438 87.3313L497.661 86.5811L496.898 86.5944L499.388 98.0078L497.861 98.0344C497.834 96.5073 497.312 95.7527 496.294 95.7704L496.307 96.534L497.111 98.8113L496.347 98.8246L495.57 98.0744L494.807 98.0877C494.833 99.6149 494.338 100.387 493.32 100.405L489.275 87.4913L488.512 87.5046L488.565 90.5588L487.801 90.5721L486.114 81.4361L488.432 82.9233L488.418 82.1597C487.919 77.5857 487.116 75.3083 486.008 75.3277L486.758 74.5508L486.718 72.2601L485.191 72.2868L485.231 74.5775L484.467 74.5908L484.414 71.5366L485.164 70.7597L484.401 70.773L483.651 71.5499L483.597 68.4957L484.361 68.4823L485.138 69.2326L485.901 69.2192L485.124 68.469L485.044 63.8877L468.313 67.9987L468.339 69.5258L473.658 67.9054L476.725 68.6156L480.53 67.7854L480.556 69.3125C469.9 71.4155 464.6 74.054 464.655 77.228C463.405 82.8509 461.94 86.4408 460.26 87.9977L460.287 89.5248L457.996 89.5648L457.219 88.8146L456.456 88.8279L456.469 89.5915L454.152 88.1043L455.599 83.4964L454.835 83.5097C453.308 83.5363 452.58 85.5858 452.651 89.6581L451.098 88.1577L451.781 83.563L449.45 81.3123L461.884 49.78L462.648 49.7666C462.675 51.2937 463.197 52.0484 464.215 52.0306L464.912 48.1995L464.162 48.9764L463.398 48.9898L463.345 45.9355L464.042 42.1044L464.819 42.8547L465.582 42.8413L464.805 42.0911L464.792 41.3275L466.266 38.2467L467.029 38.2333L467.806 38.9836L468.57 38.9702L468.557 38.2067C468.539 37.1886 467.766 36.6929 466.239 36.7196L469.87 25.9631L472.925 25.9098L472.174 26.6867L472.188 27.4503C475.685 25.3524 478.976 24.2766 482.061 24.2228ZM477.786 41.8645L471.957 58.0058L473.484 57.9792C478.575 57.8903 481.348 56.3143 481.804 53.2512L478.549 41.8512L477.786 41.8645ZM470.994 46.5658L469.56 51.9374L468.783 51.1871L468.02 51.2005L468.836 54.2413L469.6 54.228L471.771 47.316L471.757 46.5525L470.994 46.5658ZM462.715 53.5844L461.964 54.3613L461.991 55.8884L462.755 55.8751L463.478 53.5711L462.715 53.5844ZM467.349 56.5587L466.639 59.6262L467.403 59.6129L468.153 58.836L468.113 56.5453L467.349 56.5587ZM460.491 57.4422L459.78 60.5097L460.544 60.4964L462.018 57.4155L460.491 57.4422ZM473.511 59.5063L473.524 60.2698L475.051 60.2432C479.624 59.6542 481.901 58.8506 481.884 57.8325L481.12 57.8459L473.511 59.5063ZM484.494 76.1179L486.021 76.0912L486.101 80.6726L485.338 80.6859L484.494 76.1179ZM495.277 81.2762L495.304 82.8033L496.121 85.8442L496.884 85.8309L496.858 84.3038L496.041 81.2629L495.277 81.2762ZM487.682 83.7001L487.708 85.2273L489.986 84.4237L489.959 82.8966L487.682 83.7001ZM538.075 26.1205L538.838 26.1072L539.615 26.8574L540.366 26.0805L541.129 26.0672C552.931 31.2526 558.901 37.7679 559.037 45.6131L559.131 50.958C559.32 61.7975 555.926 71.5314 548.947 80.1597L548.974 81.6868C551.701 83.4663 554.295 86.2216 556.756 89.9526L556.77 90.7162C553.505 95.8651 551.259 98.4502 550.031 98.4717C546.887 98.5265 543.52 95.2756 539.931 88.7187L534.6 89.5756L530.018 89.6555L525.424 88.9719L524.66 88.9853L524.674 89.7488L528.505 90.4457L528.518 91.2093L523.95 92.0528C513.167 86.8795 507.711 80.6099 507.582 73.2438C507.326 58.5416 511.202 47.2717 519.213 39.4341L519.199 38.6706C524.504 31.9585 528.264 28.5831 530.479 28.5444L530.493 29.308L531.27 30.0582L538.088 26.884L538.075 26.1205ZM536.694 34.5462L538.998 35.2698L545.08 33.6361L545.067 32.8725L542.013 32.9258L541.262 33.7027L540.499 33.7161L540.486 32.9525L541.236 32.1756L541.222 31.4121L539.695 31.4387C538.027 31.977 537.027 33.0129 536.694 34.5462ZM543.58 35.1899L542.83 35.9667L542.843 36.7303L547.438 37.4139L547.411 35.8868L543.58 35.1899ZM518.179 67.7123L518.205 69.2394C518.281 73.5812 519.866 76.8633 522.96 79.0857L525.251 79.0457C528.185 78.9945 531.208 77.1596 534.32 73.5409L531.132 65.9587L531.883 65.1818L533.41 65.1551L533.436 66.6822L534.187 65.9053L534.95 65.892L540.322 67.3258C545.273 59.272 547.694 52.1011 547.584 45.813L547.517 41.9952C546.186 39.4725 544.127 38.2355 541.342 38.2841C536.641 38.3661 530.617 43.3086 523.27 53.1115C519.823 59.7912 518.125 64.6581 518.179 67.7123ZM555.206 44.9162C555.329 51.9528 554.681 58.5837 553.262 64.8086L553.276 65.5721L554.039 65.5588L556.813 49.4708L555.97 44.9028L555.206 44.9162ZM549.111 45.7863C549.162 48.6908 548.224 53.2899 546.297 59.5836C548.827 58.7008 550.033 54.8608 549.915 48.0637L549.875 45.773L549.111 45.7863ZM545.6 63.4148C542.601 66.6421 541.114 68.9594 541.139 70.3667C542.743 69.6199 544.485 67.2981 546.364 63.4014L545.6 63.4148ZM546.577 75.6183L546.59 76.3819L547.354 76.3685L552.565 68.6397L552.552 67.8761C550.042 69.9567 548.051 72.5374 546.577 75.6183ZM509.096 72.4536L509.939 77.0216L510.703 77.0083L510.636 73.1905L509.86 72.4403L509.096 72.4536ZM515.338 79.9825L515.351 80.7461C515.394 83.2314 518.243 85.9822 523.897 88.9986L523.883 88.235C519.221 85.411 516.627 82.6557 516.101 79.9692L515.338 79.9825ZM572.986 26.23L574.554 28.494L573.857 32.3251L574.634 33.0753L575.397 33.062L576.094 29.2309L577.621 29.2042L578.425 31.4816C574.608 46.2249 572.772 57.7138 572.916 65.9482C573.523 71.5387 574.59 74.3206 576.117 74.294L593.332 54.135L594.029 50.3039L593.656 28.9243L595.156 27.3706C596.174 27.3528 596.701 28.362 596.737 30.3981L597.5 30.3848C597.465 28.3486 598.719 27.3084 601.265 27.2639L602.845 30.2915L602.148 34.1226C603.166 34.1048 603.653 32.8234 603.609 30.2782L605.136 30.2515L605.913 31.0017L606.676 30.9884L603.818 86.0311L603.108 89.0986C601.072 89.1342 600.071 90.17 600.107 92.2061L597.053 92.2595L597.683 84.6106L596.156 84.6372L596.236 89.2186L593.985 91.5492L593.972 90.7857L594.602 83.1368C593.075 83.1634 592.294 82.1587 592.258 80.1225L591.495 80.1359L578.621 86.4709L572.486 85.0504L572.499 85.8139C567.229 85.9059 563.532 78.3326 561.409 63.0939C563.046 40.1517 564.882 28.6628 566.918 28.6272L566.905 27.8637L567.668 27.8504L567.722 30.9046L566.194 30.9312L566.221 32.4584L566.998 33.2086L567.011 33.9721L566.248 33.9855L567.051 36.2628L564.827 40.1206L565.591 40.1072L566.341 39.3304L564.29 53.1143L564.344 56.1686L565.107 56.1552C566.378 36.2746 569.004 26.2995 572.986 26.23ZM564.357 56.9321L563.607 57.709L563.713 63.8174L564.477 63.8041L565.12 56.9188L564.357 56.9321ZM588.134 62.6274L582.895 68.8291L583.659 68.8158L588.897 62.6141L588.134 62.6274ZM566.204 75.2308L566.231 76.7579L567.034 79.0352L567.798 79.0219L567.771 77.4948L566.967 75.2175L566.204 75.2308ZM571.615 78.9553L571.629 79.7188C571.66 81.4855 573.977 82.9726 578.581 84.1802L580.108 84.1536L580.095 83.39C577.16 83.4113 574.333 81.933 571.615 78.9553ZM624.327 25.5135C624.234 27.0427 625.206 27.7895 627.242 27.754L628.688 30.7839L627.893 31.5616L628.656 31.5483C625.191 42.3916 623.178 54.902 622.617 69.0793L622.427 73.6653L623.204 74.4156L623.173 75.1799L622.377 75.9576L623.141 75.9442L622.346 76.7219L622.888 82.059L622.825 83.5876C620.158 86.929 618.78 89.499 618.692 91.2977L615.637 91.351L611.928 89.8882L612.912 84.5245L609.939 81.5212L611.132 70.0436L611.656 56.2862L613.277 53.9666L613.404 50.9092L612.672 50.1582L612.703 49.3938L614.231 49.3672L614.262 48.6028L613.53 47.8518L616.376 33.2902L615.613 33.3035L616.408 32.5258L616.552 27.9406L615.82 27.1896L615.852 26.4252L624.327 25.5135ZM616.123 39.4049L615.947 44.7545L616.711 44.7412L616.887 39.3916L616.123 39.4049ZM615.089 47.0608L614.899 51.6469L615.663 51.6336L615.852 47.0475L615.089 47.0608ZM614.041 53.9532L613.896 58.5385L614.66 58.5252L614.805 53.9399L614.041 53.9532ZM614.439 84.4978L614.281 88.3195L615.827 86.7649L615.966 84.4711L614.439 84.4978ZM631.996 1.52251C632.118 1.67014 632.182 1.89367 632.187 2.1931C632.517 2.18735 632.73 2.40827 632.828 2.85585C632.837 3.36489 631.25 5.09988 628.066 8.06083C628.07 8.24049 627.541 8.84877 626.481 9.88566C625.953 10.5239 625.691 10.9777 625.696 11.2472C629.401 7.28873 631.787 5.01561 632.855 4.42788L632.945 4.42631L632.863 4.87703L633.046 5.05355C633.054 5.5027 632.63 6.12412 631.776 6.9178L632.273 7.08884L633.072 6.53575L633.163 6.62401L633.166 6.80367C632.99 6.98646 632.861 7.30322 632.779 7.75394C630.157 10.2858 628.304 12.25 627.22 13.6468C625.046 16.0809 623.867 17.9885 623.681 19.3696L623.506 19.6422C622.426 19.5113 621.879 19.1015 621.867 18.4128L621.548 18.1488L621.545 17.9691L621.629 17.6532L621.54 17.6547C620.791 17.6678 620.238 16.8538 619.879 15.2126C620.597 13.4329 621.808 11.6146 623.513 9.75774C624.774 8.17821 627.07 5.89169 630.402 2.89818L631.996 1.52251ZM629.705 9.24532L629.707 9.38006L629.797 9.37849L630.501 8.55748L630.367 8.55983L629.705 9.24532ZM629.174 9.74879L629.176 9.83862L629.397 9.65504L629.396 9.56521L629.174 9.74879ZM628.381 10.6163L628.382 10.7061L628.692 10.4311L628.69 10.3413L628.381 10.6163ZM628.115 10.8456L627.985 11.1174L628.21 11.1135L628.205 10.844L628.115 10.8456ZM624.683 12.433L625.389 11.6569L625.299 11.6585C624.883 11.8455 624.677 12.1037 624.683 12.433Z" fill="#C4A330"/>
<g clip-path="url(#clip0)">
<path d="M153.6 132.922L140.6 133.022L139.04 130.772C137.64 128.712 171.75 126.582 241.37 124.392L242.25 122.672L231.4 122.732L158.99 124.992L158.21 123.872C168.12 123.562 172.81 122.952 172.28 122.042L167.94 122.072L146.58 122.812L144.13 122.282L143.65 121.722L214.98 117.772L217.47 118.342L228.02 117.722L230.17 117.682L252.14 118.072L271.36 117.382L273.55 117.392L273.85 117.952L272.14 118.502L272.44 119.062L364.85 117.232L364.37 116.672L336.22 116.912L335.44 115.792L337.59 115.752L476.92 112.472L489.01 117.462L485.46 118.622L490.87 120.272L493.69 124.202L490.14 125.362L483.62 125.392C439.43 125.712 329.42 128.222 153.6 132.922ZM435.31 118.422L434.83 117.862L432.68 117.902L383.78 119.392L384.04 119.912L401.71 120.382L435.31 118.422ZM388.22 116.512L387.92 115.952L377.1 116.052L377.4 116.612L388.22 116.512ZM356.37 120.712L355.89 120.152L336.37 120.282L339.04 120.852L339.34 121.412L356.37 120.712ZM325.84 117.542L291.17 117.812L290.39 116.692L325.06 116.422L325.84 117.542Z" fill="#C4A330"/>
</g>
<defs>
<clipPath id="clip0">
<rect x="139" y="112.472" width="354.7" height="20.55" fill="white"/>
</clipPath>
</defs>
</svg>
