<svg width="291" height="136" viewBox="0 0 291 136" fill="none" xmlns="http://www.w3.org/2000/svg">
<path d="M13.7449 19.6793C13.6822 20.7099 14.3369 21.2132 15.7091 21.1892L16.6833 23.2311L16.1475 23.7552L16.662 23.7462C14.327 31.0537 12.9703 39.4846 12.5921 49.0389L12.4644 52.1295L12.9879 52.6351L12.9666 53.1502L12.4308 53.6742L12.9453 53.6653L12.4095 54.1893L12.775 57.786L12.7325 58.8162C10.9349 61.068 10.0063 62.8 9.94675 64.0121L7.88847 64.0481L5.38846 63.0622L6.05204 59.4476L4.04864 57.4236L4.85225 49.6887L5.20514 40.4175L6.29815 38.8542L6.38329 36.7938L5.89001 36.2877L5.9113 35.7726L6.94044 35.7546L6.96172 35.2395L6.46844 34.7334L8.38633 24.9201L7.87176 24.9291L8.40762 24.405L8.50507 21.315L8.01179 20.8088L8.03308 20.2938L13.7449 19.6793ZM8.21604 29.0409L8.0973 32.6461L8.61187 32.6371L8.73061 29.0319L8.21604 29.0409ZM7.51887 34.2004L7.39115 37.2909L7.90572 37.282L8.03344 34.1914L7.51887 34.2004ZM6.81272 38.8452L6.71526 41.9353L7.22983 41.9263L7.32729 38.8362L6.81272 38.8452ZM7.08118 59.4296L6.97475 62.0051L8.01619 60.9575L8.11032 59.4116L7.08118 59.4296ZM27.1551 19.5058L30.8109 22.5304C30.793 21.5012 31.127 20.9807 31.8131 20.9687L32.3277 20.9597L39.855 39.3585L39.873 40.3876L39.3584 40.3966L38.2754 37.3271L37.7608 37.3361L37.7788 38.3653L41.5335 47.0501L42.048 47.0411C43.2645 38.0979 45.0795 28.7507 47.4931 18.9994L49.0547 20.0016L50.5895 19.4601L53.7038 20.9499L53.7128 21.4645C52.6837 21.4824 52.1811 22.1775 52.205 23.5497L52.7196 23.5407L53.2432 24.0463L53.7577 24.0373L54.2274 21.4555L55.2565 21.4375L55.2655 21.9521L54.7599 22.4757L55.2835 22.9812L55.2925 23.4958C52.8479 31.4713 50.7258 42.8828 48.9261 57.7303L47.8969 57.7483L48.7824 49.4972C48.0963 49.5092 47.124 52.7861 45.8656 59.3279C44.6123 60.3792 43.4206 60.9148 42.2905 60.9345L42.3085 61.9636L41.7939 61.9726C41.782 61.2865 41.0899 60.9554 39.7177 60.9794L39.6548 57.3774C39.6277 55.8236 36.0475 47.3073 28.9143 31.8285L28.3998 31.8375C27.1343 37.9758 26.0773 46.2299 25.2289 56.5998L24.7053 56.0942C22.6576 56.7355 21.6435 57.6111 21.6628 58.7209L20.6337 58.7389C19.9251 57.4594 19.5431 55.2356 19.4878 52.0674L18.9732 52.0764L19.0541 56.7075L18.0249 56.7255L17.4654 54.1616C17.3027 44.8388 19.1634 33.4824 23.0475 20.0922L27.1551 19.5058ZM20.1756 32.4958L20.1846 33.0104L20.7082 33.516L20.2026 34.0395L20.2205 35.0687L20.7351 35.0597L21.2137 32.9924L20.6902 32.4868L20.1756 32.4958ZM39.873 40.3876C40.7609 40.3721 41.4709 41.7323 42.0031 44.4682L42.0121 44.9828L41.4975 44.9918L39.873 40.3876ZM72.0566 17.7229C72.9766 18.3931 75.8682 18.6858 80.7314 18.6009L80.7101 19.116L77.1081 19.1789L77.0868 19.694C81.385 19.6189 84.0868 20.6012 85.1922 22.6409L85.1497 23.6711L82.5768 23.716L82.5555 24.2311L86.1362 24.6833L86.1149 25.1984L83.0275 25.2523L83.0062 25.7674C84.0354 25.7494 84.5358 26.0838 84.5074 26.7706C78.3931 26.8773 72.9735 29.2024 68.2487 33.7459L68.2274 34.261C74.8974 35.9209 80.2229 39.7741 84.2041 45.8208L84.1828 46.3359C83.0091 50.7972 79.5799 54.9748 73.8951 58.8689L70.7561 59.4384L70.7348 59.9535L71.7639 59.9356C71.7398 60.8645 68.6098 61.9486 62.3739 63.1878L62.4165 62.1576L64.9894 62.1127L65.0409 61.5971C62.8414 61.6355 60.8328 60.4695 59.0151 58.0992C57.4677 57.339 56.6747 55.849 56.6359 53.6293C56.6324 53.4275 56.6388 53.2155 56.6551 52.9931L58.2414 51.936L59.7425 52.9392L60.7717 52.9213C70.4313 51.2388 75.3717 48.0642 75.5931 43.3975C71.5011 41.41 68.7993 40.4277 67.4877 40.4506L67.4664 40.9657L62.3756 38.9957L62.8688 39.5018L62.8565 40.5314C58.5236 37.4582 56.3931 35.0933 56.4651 33.4368L60.3652 26.1626L63.0232 24.0573L62.9806 25.0875L72.0566 17.7229ZM65.2767 31.7388L65.2554 32.2539L74.2373 26.4352L78.3964 25.3331L78.439 24.3029L77.4098 24.3209C72.0168 26.4335 67.9725 28.9062 65.2767 31.7388ZM68.4902 52.7865L69.0048 52.7776L70.0765 51.7294L69.5619 51.7384L68.4902 52.7865ZM77.7525 52.6249L75.5878 55.2363L76.1023 55.2273L78.2671 52.6159L77.7525 52.6249ZM71.3771 56.854L71.3861 57.3685L71.9006 57.3596L74.0228 55.7783L71.3771 56.854ZM65.5981 60.5579L65.5768 61.073L67.6351 61.0371L70.2292 60.4771L70.2202 59.9625L69.7056 59.9715L65.5981 60.5579ZM103.894 18.6205L104.409 18.6115C109.393 18.5245 113.203 20.5169 115.837 24.5887L115.846 25.1033L114.817 25.1213L115.341 25.6269L115.35 26.1414C113.287 25.9352 112.252 25.6101 112.244 25.1662C104.233 25.306 98.3017 29.5274 94.45 37.8302L93.4837 41.4502L95.1981 51.2001L96.7418 51.1731C101.02 51.0985 105.769 47.9272 110.988 41.6594L111.503 41.6504L111.512 42.165C107.951 47.4955 103.888 50.6548 99.3236 51.6428L99.3326 52.1574L99.8471 52.1484C103.439 52.0857 107.845 48.9204 113.064 42.6526L114.644 44.6839L114.671 46.2276C114.69 47.3375 112.162 49.9552 107.087 54.0809L106.581 54.6045L106.067 54.6134L106.085 55.6426C111.867 52.6955 114.747 50.5863 114.725 49.3151L115.754 49.2971L115.763 49.8117C111.534 55.0327 106.605 57.6924 100.975 57.7907L100.984 58.3053L103.557 58.2603L105.606 57.7098L106.121 57.7009L106.13 58.2154L99.9724 59.3221C97.3692 59.3675 94.5921 57.5388 91.641 53.8358L91.65 54.3504L94.2947 58.422L94.3031 58.9063L92.7594 58.9333C89.533 56.8096 87.5986 54.1082 86.9559 50.8292L86.3246 44.1488C86.1746 35.5524 87.794 30.0337 91.1829 27.5927L91.1919 28.1073L88.1943 33.3069L88.2033 33.8215L88.7178 33.8125C88.6608 30.5434 92.868 25.8375 101.34 19.6945L99.8048 20.236L99.2903 20.245L99.2813 19.7305L103.894 18.6205ZM98.2701 20.7776L98.7847 20.7686L98.7937 21.2832L95.2186 22.8897C95.2066 22.2036 96.2238 21.4996 98.2701 20.7776ZM93.7019 24.4604L93.7108 24.975L91.1829 27.5927L91.1739 27.0782L93.7019 24.4604ZM87.9581 49.2675L87.9851 50.8112L88.5356 52.8605L89.0502 52.8516L89.0412 52.337L88.4727 49.2586L87.9581 49.2675ZM127.306 17.2429L133.48 17.1352C140.708 18.3614 144.364 21.386 144.448 26.2088L144.502 29.2962L139.482 36.59L139.997 36.581L145.061 31.8601L145.079 32.8892C143.392 36.8346 141.207 39.4464 138.525 40.7245L135.455 41.8076L135.491 43.8659C136.238 43.8528 139.918 48.2496 146.531 57.0561C147.913 57.5971 149.309 58.9454 150.719 61.1008L150.728 61.6153L148.119 59.602L148.128 60.1165C149.875 61.9027 150.757 63.2599 150.773 64.1882L150.258 64.1972L147.713 65.7858L147.198 65.7948L146.142 64.269L145.636 64.7926L145.122 64.8016C138.163 59.3115 133.261 53.7351 130.417 48.0722L127.755 42.9714C126.544 42.9926 125.894 45.0628 125.804 49.1822C126.086 52.6088 125.951 54.7004 125.399 55.4568C124.404 56.3018 124.247 57.1321 124.928 57.9479L124.946 58.977L123.402 59.004C122.716 59.0159 122.361 58.3358 122.337 56.9636L121.822 56.9726C121.846 58.3448 121.21 58.8706 119.912 58.5501L117.589 55.5629L118.113 50.8607L118.077 48.8024L120.913 34.3405L121.427 34.3315L121.463 36.3898L121.978 36.3808L124.362 25.53C123.676 25.5419 123.345 26.234 123.369 27.6062L122.854 27.6152L122.836 26.586L119.749 26.6399L119.74 26.1254C119.728 25.4393 120.748 24.9067 122.8 24.5278L122.791 24.0132L121.762 24.0312L118.693 25.1142L118.178 25.1232C118.166 24.4371 118.846 24.0821 120.218 24.0581L120.209 23.5435C118.837 23.5675 118.142 23.0649 118.124 22.0357L127.306 17.2429ZM128.144 35.7585L128.658 35.7495C134.001 33.0725 137.726 30.2623 139.835 27.3188L139.817 26.2896C139.797 25.1192 137.717 23.9545 133.579 22.7954L130.51 23.8785L128.144 35.7585ZM138.21 22.7146C138.924 24.2564 139.625 25.1021 140.314 25.2515L140.296 24.2224L138.21 22.7146ZM141.352 25.7481L140.882 28.33L141.397 28.321L141.902 27.7974L141.866 25.7391L141.352 25.7481ZM122.34 27.6242L122.854 27.6152L122.881 29.1589L122.402 31.2262L121.888 31.2351L121.861 29.6914L122.34 27.6242ZM139.871 29.3771L137.361 33.024L137.875 33.015L140.394 29.8826L140.385 29.3681L139.871 29.3771ZM145.035 30.3164L146.064 30.2984L145.576 31.8511L145.061 31.8601L145.035 30.3164ZM121.391 32.2733L121.906 32.2643L121.942 34.3226L121.427 34.3315L121.391 32.2733ZM120.479 38.9806L120.515 41.0389L121.029 41.0299L120.993 38.9717L120.479 38.9806ZM136.185 54.1483L136.194 54.6628L138.289 56.6852C137.596 55.143 136.895 54.2974 136.185 54.1483ZM138.821 57.7054L138.83 58.2199L140.915 59.7277L140.906 59.2131L138.821 57.7054ZM158.793 17.1475C158.73 18.178 159.385 18.6813 160.757 18.6574L161.732 20.6993L161.196 21.2234L161.71 21.2144C159.375 28.5219 158.019 36.9528 157.64 46.5071L157.513 49.5976L158.036 50.1032L158.015 50.6183L157.479 51.1424L157.994 51.1334L157.458 51.6575L157.823 55.2542L157.781 56.2844C155.983 58.5362 155.055 60.2681 154.995 61.4803L152.937 61.5162L150.437 60.5304L151.1 56.9157L149.097 54.8918L149.9 47.1569L150.253 37.8856L151.346 36.3224L151.432 34.262L150.938 33.7559L150.96 33.2408L151.989 33.2228L152.01 32.7077L151.517 32.2016L153.435 22.3883L152.92 22.3973L153.456 21.8732L153.553 18.7831L153.06 18.277L153.081 17.7619L158.793 17.1475ZM153.264 26.5091L153.146 30.1142L153.66 30.1053L153.779 26.5001L153.264 26.5091ZM152.567 31.6685L152.439 34.7591L152.954 34.7501L153.082 31.6595L152.567 31.6685ZM151.861 36.3134L151.763 39.4035L152.278 39.3945L152.376 36.3044L151.861 36.3134ZM152.129 56.8978L152.023 59.4733L153.064 58.4256L153.159 56.8798L152.129 56.8978ZM163.961 0.979648C164.043 1.07914 164.086 1.22978 164.09 1.43157C164.312 1.42769 164.456 1.57657 164.522 1.8782C164.528 2.22125 163.458 3.39049 161.313 5.38591C161.315 5.50699 160.959 5.91691 160.244 6.61568C159.888 7.04579 159.712 7.35165 159.715 7.53326C162.212 4.86558 163.82 3.3337 164.54 2.93761L164.601 2.93656L164.545 3.2403L164.669 3.35926C164.674 3.66195 164.389 4.08073 163.812 4.61561L164.148 4.73087L164.686 4.35813L164.748 4.41761L164.75 4.53869C164.631 4.66188 164.544 4.87535 164.488 5.17909C162.722 6.88531 161.473 8.20906 160.743 9.15034C159.278 10.7907 158.483 12.0763 158.358 13.007L158.24 13.1907C157.511 13.1025 157.143 12.8264 157.135 12.3622L156.92 12.1843L156.918 12.0632L156.975 11.8503L156.914 11.8514C156.41 11.8602 156.037 11.3116 155.796 10.2056C156.279 9.00621 157.096 7.78084 158.244 6.52948C159.094 5.46501 160.641 3.9241 162.887 1.90673L163.961 0.979648ZM162.417 6.18415L162.418 6.27495L162.479 6.2739L162.954 5.72061L162.863 5.72219L162.417 6.18415ZM162.059 6.52345L162.06 6.58398L162.21 6.46027L162.209 6.39973L162.059 6.52345ZM161.525 7.10806L161.526 7.1686L161.734 6.98329L161.733 6.92275L161.525 7.10806ZM161.346 7.26258L161.258 7.44578L161.409 7.44313L161.406 7.26152L161.346 7.26258ZM159.033 8.3324L159.508 7.80938L159.448 7.81043C159.167 7.93644 159.029 8.11043 159.033 8.3324ZM182.645 15.0053L185.141 15.749L185.089 16.2646L182.542 16.0366L182.645 15.0053ZM172.807 15.1165L174.25 16.3024L178.963 15.7054L179.427 16.2726L179.943 16.3242L181.511 15.9637C187.293 16.4684 191.51 19.2611 194.162 24.3419C194.85 24.4106 195.118 25.2941 194.966 26.9923L194.635 30.6012L193.604 30.4981L193.655 29.9824L194.326 28.4871L193.861 27.9199L194.398 27.4564L193.934 26.8892L192.934 26.8158C192.746 28.7771 190.824 30.8393 187.168 33.0024L187.116 33.518L187.631 33.5393C188.926 33.6782 190.72 32.9908 193.015 31.4772L192.942 32.508L190.055 35.3439C191.955 35.5126 194.783 38.5213 198.539 44.3701C198.201 48.1305 192.669 52.1026 181.943 56.2866C177.361 58.6071 173.816 59.6581 171.309 59.4394L170.381 58.2748L169.866 58.2535C169.783 59.2844 169.054 59.7311 167.679 59.5936C167.574 60.5441 167.24 61.0243 166.675 61.0342L166.493 61.0374C165.805 60.9686 165.582 59.7412 165.823 57.3552L165.308 57.3339L164.564 59.8296L164.049 59.7781C164.353 56.3816 163.989 54.642 162.958 54.559L162.649 52.445L163.216 51.9809L162.722 51.4142L167.337 29.594L166.873 29.0571L167.389 29.1087L166.925 28.5718L168.154 20.9202L168.176 20.4051L167.476 16.7234L167.991 16.7447C169.889 15.6619 171.384 15.111 172.473 15.092C172.594 15.0899 172.705 15.0981 172.807 15.1165ZM185.149 21.4411L185.098 21.9567L189.171 22.8545C189.219 22.1674 188.738 21.7822 187.728 21.6989L185.149 21.4411ZM175.341 26.7293L175.556 30.3589L180.238 29.7625L180.165 30.7932L187.705 27.3613L187.654 27.8769L183.796 30.6087C188.033 29.364 190.289 27.3364 190.562 24.5258L189.531 24.4227C189.359 26.1213 188.768 26.9289 187.757 26.8456L187.83 25.8149L187.315 25.7936L187.984 24.268L188.448 24.8352L188.965 24.917L189.016 24.4014C187.744 23.2327 185.734 22.531 182.984 22.2964C178.213 21.8347 175.665 23.3123 175.341 26.7293ZM187.315 25.7936L187.293 26.3087L186.158 27.2066L185.643 27.1853L187.315 25.7936ZM185.166 38.0029L185.144 38.4877L190.188 39.4897L190.703 39.511L190.754 38.9954L188.744 38.3038L185.166 38.0029ZM173.635 40.0209L172.251 49.189L172.715 49.7562L173.231 49.8077C175.697 50.0473 181.239 47.8008 189.857 43.0683L190.991 42.1402C190.906 40.7488 189.6 39.944 187.073 39.7257L182.979 39.3128L173.635 40.0209ZM192.073 41.6974L190.867 43.6865L193.054 42.3464L192.589 41.7792L192.073 41.6974ZM195.476 44.0905C195.374 45.1621 192.028 47.784 185.44 51.9563C192.974 48.797 196.808 46.3987 196.941 44.7613L196.425 44.7098L195.992 44.1421L195.476 44.0905ZM226.532 15.7835L229.044 17.4654C228.37 20.5252 227.084 22.0111 225.185 21.9231L211.757 22.7631L211.714 23.7933L214.26 23.9305L217.372 23.5734L217.867 24.1401L218.382 24.1613L222.009 23.7952L223.039 23.8681L223.018 24.3832L211.084 25.8329L210.261 32.5084L210.777 32.5297L224.741 31.1657L225.205 31.7026L225.183 32.2177L224.153 32.1448L224.162 32.6594L227.717 33.3846L227.696 33.8997C226.982 35.8297 222.086 37.4695 213.006 38.8189L207.833 39.0909L208.326 39.597L205.958 46.1784L205.444 46.1874L205.666 41.551L205.151 41.5297L204.276 48.6905C214.524 47.1391 221.769 46.4676 226.011 46.6761L228.536 47.3285L228.523 48.3581L227.493 48.3156L227.957 48.8525L227.893 50.3978C226.926 51.7065 224.837 52.288 221.625 52.1422L221.604 52.6573L225.725 52.8579L225.653 53.8886L201.771 57.8177L201.256 57.7964C199.595 57.4621 198.758 56.9417 198.746 56.2355L198.744 56.1447L198.808 54.5994L200.134 49.0051L199.64 48.4687L200.67 48.481L200.533 51.057L201.049 51.1086C201.22 49.3898 201.61 48.5554 202.216 48.6054L201.722 48.0387L201.996 42.917L200.965 42.8441L200.313 45.3989L200.88 44.9045L201.395 44.9258L201.237 48.0169L200.721 47.9654L200.786 46.4503L200.27 46.4291L200.228 47.4593L199.713 47.438L199.755 46.4078L201.238 37.6921L200.723 37.6708L201.86 35.1681L201.366 34.6318L201.388 34.1167L202.356 25.41L202.85 25.9463L203.365 25.9676L203.408 24.9374L203.029 22.3401L203.766 17.725L203.83 16.1797L204.346 16.2313L204.839 16.7676L205.376 16.2738L205.891 16.3254L206.385 16.8315L206.921 16.3377L208.467 16.4318L226.532 15.7835ZM201.165 38.7228L200.986 42.329L201.501 42.3503L201.681 38.7744L201.165 38.7228ZM218.158 39.0923L218.672 39.0833L218.621 39.599L209.314 40.7L208.82 40.1334L208.842 39.6485L213.5 39.3553L213.478 39.8704L218.158 39.0923ZM260.568 14.2507L262.12 14.7384L262.138 15.7675L260.595 15.7944L261.651 17.3202C260.934 19.0485 258.205 19.954 253.462 20.0367L249.869 20.6142L249.382 22.1669L249.896 22.1579C248.91 24.6175 247.043 35.631 244.296 55.1982L245.957 61.8606L245.442 61.8696C244.675 61.883 243.959 60.1797 243.294 56.7598L243.719 51.6052L243.71 51.0906L243.195 51.0996L243.213 52.1287C242.184 52.1467 241.676 52.4987 241.688 53.1848L241.697 53.6994L242.869 61.9145L242.878 62.4291L241.849 62.4471L239.764 60.9393L239.258 61.4628L238.744 61.4718C237.32 58.5294 236.589 55.9685 236.551 53.7892L237.074 54.2948L237.589 54.2858L236.497 50.7018L238.032 50.1602L237.987 47.5874L236.958 47.6054L236.949 47.0908C237.978 47.0728 238.486 46.7208 238.474 46.0347L238.465 45.5201L237.436 45.5381C237.388 42.7937 237.879 41.4126 238.908 41.3946L238.791 34.7052C239.328 34.2114 239.951 30.5974 240.661 23.8633L237.068 24.4407L229.855 24.0519L229.846 23.5373L232.41 22.9779L232.419 23.4924L232.925 22.9689L240.643 22.8341L240.616 21.2904L232.401 22.4633L231.877 21.9577L231.363 21.9667L228.284 22.5351L226.723 21.5329L227.192 18.9511L226.669 18.4455C226.639 16.7303 228.682 15.8367 232.799 15.7649L260.568 14.2507ZM257.507 15.8483L257.516 16.3629L259.574 16.327L259.565 15.8124L257.507 15.8483ZM238.971 44.9966L238.14 56.3351L239.169 56.3171L238.609 53.7533L238.591 52.7241L239.593 51.1624L239.079 51.1714L239.584 50.6479L239.575 50.1333L239.052 49.6277L239.043 49.1131L240.036 47.0369L239.486 44.9876L238.971 44.9966ZM285.495 14.7542L288.007 16.4362C287.334 19.496 286.048 20.9819 284.149 20.8939L270.72 21.7339L270.678 22.7641L273.223 22.9013L276.336 22.5442L276.83 23.1108L277.345 23.1321L280.972 22.766L282.003 22.8389L281.982 23.354L270.047 24.8037L269.225 31.4792L269.74 31.5005L283.705 30.1365L284.168 30.6734L284.147 31.1885L283.116 31.1156L283.125 31.6302L286.681 32.3554L286.659 32.8705C285.946 34.8005 281.05 36.4403 271.969 37.7897L266.797 38.0617L267.29 38.5678L264.922 45.1492L264.407 45.1581L264.629 40.5217L264.114 40.5004L263.24 47.6613C273.487 46.1099 280.732 45.4384 284.975 45.6469L287.499 46.2993L287.487 47.3289L286.457 47.2864L286.92 47.8233L286.856 49.3686C285.89 50.6773 283.801 51.2588 280.589 51.113L280.568 51.6281L284.689 51.8286L284.616 52.8594L260.735 56.7885L260.22 56.7672C258.559 56.4328 257.722 55.9125 257.71 55.2063L257.708 55.1155L257.772 53.5702L259.097 47.9759L258.604 47.4395L259.633 47.4518L259.497 50.0278L260.012 50.0794C260.184 48.3606 260.573 47.5262 261.18 47.5762L260.685 47.0095L260.959 41.8878L259.929 41.8149L259.277 44.3696L259.843 43.8753L260.358 43.8966L260.2 46.9877L259.685 46.9362L259.749 45.4211L259.234 45.3998L259.192 46.43L258.676 46.4088L258.719 45.3786L260.202 36.6629L259.687 36.6416L260.824 34.1389L260.33 33.6025L260.351 33.0874L261.32 24.3807L261.814 24.9171L262.329 24.9384L262.371 23.9082L261.993 21.3109L262.73 16.6958L262.794 15.1505L263.309 15.202L263.803 15.7384L264.339 15.2446L264.855 15.2962L265.348 15.8023L265.885 15.3085L267.431 15.4026L285.495 14.7542ZM260.129 37.6936L259.95 41.2998L260.465 41.3211L260.645 37.7452L260.129 37.6936ZM277.122 38.0631L277.636 38.0541L277.585 38.5698L268.278 39.6708L267.784 39.1042L267.806 38.6193L272.463 38.3261L272.442 38.8412L277.122 38.0631ZM106.89 70.5185C107.129 71.5438 108.511 72.0344 111.033 71.9904L115.464 89.9285L119.066 89.8656L119.075 90.3802L115.996 90.9486L116.005 91.4632C117.035 91.4452 117.555 91.7793 117.567 92.4654L121.684 92.3935L121.693 92.9081C121.706 93.6749 120.003 94.3909 116.583 95.0562L117.666 98.1256L117.178 99.6783L117.747 102.757L117.241 103.28L117.756 103.271L117.25 103.795L117.873 109.961L117.926 113.048L117.403 112.543L116.888 112.552L118.567 120.243L117.538 120.261C117.52 119.232 117.168 118.723 116.482 118.735L116.49 119.25L117.032 120.785L116.517 120.794L115.994 120.288L115.479 120.297C115.497 121.326 115.163 121.847 114.477 121.859L111.752 113.156L111.237 113.165L111.273 115.223L110.758 115.232L109.621 109.075L111.183 110.078L111.174 109.563C110.838 106.48 110.296 104.946 109.55 104.959L110.055 104.435L110.028 102.892L108.999 102.909L109.026 104.453L108.511 104.462L108.476 102.404L108.981 101.88L108.467 101.889L107.961 102.413L107.925 100.355L108.44 100.346L108.963 100.851L109.478 100.842L108.954 100.337L108.9 97.2492L97.6247 100.02L97.6426 101.049L101.227 99.9568L103.294 100.435L105.858 99.8759L105.876 100.905C98.6943 102.322 95.1223 104.1 95.1596 106.239C94.3174 110.029 93.3302 112.448 92.1979 113.497L92.2159 114.526L90.6722 114.553L90.1486 114.048L89.634 114.057L89.643 114.571L88.0814 113.569L89.0566 110.464L88.542 110.473C87.5129 110.491 87.0223 111.872 87.0702 114.616L86.0231 113.605L86.4838 110.509L84.9131 108.992L93.2925 87.7418L93.8071 87.7328C93.8251 88.762 94.1771 89.2706 94.8632 89.2586L95.3328 86.6768L94.8273 87.2003L94.3127 87.2093L94.2768 85.151L94.7464 82.5692L95.27 83.0748L95.7845 83.0658L95.261 82.5602L95.252 82.0456L96.2452 79.9694L96.7598 79.9604L97.2833 80.466L97.7979 80.457L97.7889 79.9424C97.777 79.2563 97.2564 78.9223 96.2273 78.9402L98.6744 71.6914L100.733 71.6554L100.227 72.179L100.236 72.6935C102.593 71.2798 104.811 70.5548 106.89 70.5185ZM104.009 82.4075L100.081 93.2853L101.11 93.2674C104.54 93.2075 106.409 92.1454 106.716 90.0811L104.523 82.3985L104.009 82.4075ZM99.4314 85.5758L98.4652 89.1957L97.9416 88.6901L97.4271 88.6991L97.9776 90.7484L98.4921 90.7394L99.955 86.0813L99.946 85.5668L99.4314 85.5758ZM93.852 90.3057L93.3464 90.8292L93.3644 91.8584L93.879 91.8494L94.3666 90.2967L93.852 90.3057ZM96.9754 92.3101L96.4967 94.3773L97.0113 94.3684L97.5169 93.8448L97.4899 92.3011L96.9754 92.3101ZM92.3532 92.9055L91.8746 94.9727L92.3891 94.9638L93.3824 92.8875L92.3532 92.9055ZM101.128 94.2965L101.137 94.8111L102.166 94.7931C105.247 94.3962 106.782 93.8547 106.77 93.1686L106.256 93.1775L101.128 94.2965ZM108.529 105.491L109.559 105.473L109.612 108.561L109.098 108.57L108.529 105.491ZM115.796 108.968L115.814 109.997L116.365 112.046L116.879 112.037L116.861 111.008L116.311 108.959L115.796 108.968ZM110.678 110.601L110.695 111.63L112.23 111.089L112.212 110.06L110.678 110.601ZM144.638 71.7974L145.153 71.7884L145.676 72.294L146.182 71.7704L146.697 71.7615C154.65 75.256 158.673 79.6467 158.765 84.9337L158.828 88.5357C158.956 95.8406 156.668 102.4 151.965 108.215L151.983 109.244C153.821 110.443 155.569 112.3 157.228 114.815L157.237 115.329C155.037 118.799 153.523 120.541 152.696 120.556C150.577 120.593 148.308 118.402 145.889 113.983L142.296 114.561L139.209 114.614L136.113 114.154L135.598 114.163L135.607 114.677L138.189 115.147L138.198 115.662L135.119 116.23C127.852 112.744 124.175 108.519 124.089 103.554C123.916 93.6464 126.529 86.0515 131.927 80.7696L131.918 80.2551C135.492 75.7317 138.026 73.457 139.52 73.4309L139.529 73.9455L140.052 74.4511L144.647 72.312L144.638 71.7974ZM143.708 77.4756L145.261 77.9632L149.359 76.8623L149.35 76.3477L147.292 76.3836L146.786 76.9072L146.272 76.9161L146.263 76.4016L146.768 75.878L146.759 75.3635L145.73 75.3814C144.606 75.7442 143.932 76.4423 143.708 77.4756ZM148.348 77.9094L147.842 78.4329L147.851 78.9475L150.948 79.4082L150.93 78.379L148.348 77.9094ZM131.23 99.8267L131.248 100.856C131.299 103.782 132.367 105.994 134.452 107.491L135.996 107.464C137.973 107.43 140.011 106.193 142.108 103.755L139.96 98.6449L140.465 98.1213L141.494 98.1033L141.512 99.1325L142.018 98.6089L142.533 98.5999L146.152 99.5662C149.489 94.1387 151.121 89.3061 151.047 85.0684L151.002 82.4956C150.104 80.7955 148.717 79.9618 146.84 79.9946C143.672 80.0499 139.612 83.3807 134.661 89.987C132.338 94.4885 131.194 97.7684 131.23 99.8267ZM156.183 84.464C156.266 89.2062 155.829 93.6747 154.873 97.8698L154.882 98.3844L155.397 98.3754L157.266 87.5335L156.698 84.4551L156.183 84.464ZM152.076 85.0505C152.11 87.0078 151.478 90.1072 150.179 94.3487C151.885 93.7537 152.697 91.1659 152.617 86.5852L152.59 85.0415L152.076 85.0505ZM149.71 96.9305C147.689 99.1054 146.686 100.667 146.703 101.616C147.784 101.112 148.958 99.5475 150.224 96.9215L149.71 96.9305ZM150.368 105.155L150.377 105.669L150.891 105.66L154.404 100.452L154.395 99.9371C152.703 101.339 151.361 103.078 150.368 105.155ZM125.109 103.022L125.677 106.1L126.192 106.091L126.147 103.518L125.624 103.013L125.109 103.022ZM129.315 108.096L129.324 108.61C129.354 110.285 131.273 112.139 135.083 114.172L135.074 113.657C131.933 111.754 130.184 109.897 129.83 108.087L129.315 108.096ZM168.166 71.8712L169.222 73.3969L168.752 75.9787L169.276 76.4843L169.79 76.4754L170.26 73.8935L171.289 73.8756L171.83 75.4103C169.259 85.346 168.021 93.0885 168.118 98.6378C168.527 102.405 169.246 104.28 170.275 104.262L181.877 90.6767L182.346 88.0949L182.095 73.6869L183.106 72.6398C183.792 72.6279 184.147 73.308 184.171 74.6801L184.686 74.6712C184.662 73.299 185.507 72.5979 187.223 72.568L188.288 74.6083L187.818 77.1901C188.504 77.1782 188.832 76.3145 188.802 74.5993L189.831 74.5813L190.355 75.0869L190.87 75.078L188.943 112.172L188.465 114.239C187.093 114.263 186.418 114.961 186.442 116.333L184.384 116.369L184.809 111.215L183.78 111.233L183.834 114.32L182.317 115.891L182.308 115.376L182.733 110.221C181.704 110.239 181.177 109.562 181.153 108.19L180.638 108.199L171.963 112.468L167.828 111.511L167.837 112.026C164.286 112.088 161.794 106.984 160.364 96.7142C161.466 81.2532 162.704 73.5107 164.076 73.4867L164.067 72.9722L164.582 72.9632L164.618 75.0215L163.588 75.0394L163.606 76.0686L164.13 76.5742L164.139 77.0887L163.624 77.0977L164.166 78.6324L162.667 81.2322L163.182 81.2232L163.687 80.6997L162.305 89.9889L162.341 92.0472L162.856 92.0382C163.712 78.6404 165.482 71.918 168.166 71.8712ZM162.35 92.5618L161.844 93.0853L161.916 97.2019L162.431 97.1929L162.865 92.5528L162.35 92.5618ZM178.374 96.3999L174.843 100.579L175.358 100.57L178.888 96.3909L178.374 96.3999ZM163.595 104.893L163.613 105.923L164.154 107.457L164.669 107.448L164.651 106.419L164.109 104.884L163.595 104.893ZM167.242 107.403L167.251 107.918C167.271 109.109 168.833 110.111 171.936 110.925L172.965 110.907L172.956 110.392C170.978 110.406 169.073 109.41 167.242 107.403ZM202.765 71.3883C202.702 72.4189 203.357 72.9222 204.729 72.8982L205.703 74.9401L205.168 75.4642L205.682 75.4552C203.347 82.7627 201.99 91.1936 201.612 100.748L201.484 103.838L202.008 104.344L201.987 104.859L201.451 105.383L201.965 105.374L201.43 105.898L201.795 109.495L201.753 110.525C199.955 112.777 199.026 114.509 198.967 115.721L196.909 115.757L194.409 114.771L195.072 111.157L193.069 109.133L193.872 101.398L194.225 92.1265L195.318 90.5632L195.403 88.5028L194.91 87.9967L194.931 87.4816L195.961 87.4636L195.982 86.9486L195.489 86.4424L197.406 76.6291L196.892 76.6381L197.428 76.114L197.525 73.024L197.032 72.5179L197.053 72.0028L202.765 71.3883ZM197.236 80.7499L197.117 84.3551L197.632 84.3461L197.751 80.741L197.236 80.7499ZM196.539 85.9094L196.411 89L196.926 88.991L197.054 85.9004L196.539 85.9094ZM195.833 90.5542L195.735 93.6443L196.25 93.6353L196.347 90.5453L195.833 90.5542ZM196.101 111.139L195.995 113.714L197.036 112.666L197.13 111.121L196.101 111.139ZM207.933 55.2205C208.015 55.32 208.058 55.4706 208.062 55.6724C208.284 55.6685 208.428 55.8174 208.494 56.119C208.5 56.4621 207.43 57.6313 205.285 59.6268C205.287 59.7478 204.931 60.1578 204.216 60.8565C203.86 61.2866 203.684 61.5925 203.687 61.7741C206.184 59.1064 207.792 57.5745 208.512 57.1785L208.573 57.1774L208.517 57.4811L208.641 57.6001C208.646 57.9028 208.36 58.3216 207.784 58.8565L208.119 58.9717L208.658 58.599L208.72 58.6585L208.722 58.7795C208.603 58.9027 208.516 59.1162 208.46 59.4199C206.694 61.1262 205.445 62.4499 204.715 63.3912C203.25 65.0316 202.454 66.3171 202.329 67.2479L202.211 67.4316C201.483 67.3434 201.115 67.0672 201.107 66.6031L200.892 66.4252L200.89 66.3041L200.947 66.0911L200.886 66.0922C200.382 66.101 200.009 65.5524 199.767 64.4464C200.251 63.2471 201.067 62.0217 202.216 60.7703C203.066 59.7059 204.613 58.1649 206.859 56.1476L207.933 55.2205ZM206.389 60.425L206.39 60.5158L206.451 60.5147L206.926 59.9615L206.835 59.963L206.389 60.425ZM206.031 60.7643L206.032 60.8248L206.182 60.7011L206.18 60.6406L206.031 60.7643ZM205.496 61.3489L205.498 61.4094L205.706 61.2241L205.705 61.1636L205.496 61.3489ZM205.317 61.5034L205.23 61.6866L205.381 61.684L205.378 61.5024L205.317 61.5034ZM203.005 62.5732L203.48 62.0502L203.42 62.0513C203.139 62.1773 203.001 62.3513 203.005 62.5732Z" fill="#C4A330"/>
<path d="M69.7511 135.956L63.7404 136L63.0191 135.015C62.3718 134.112 78.143 133.18 110.333 132.22L110.74 131.467L105.723 131.493L72.2433 132.483L71.8826 131.993C76.4646 131.857 78.6331 131.59 78.3881 131.191L76.3814 131.204L66.5054 131.528L65.3726 131.296L65.1506 131.051L98.131 129.321L99.2822 129.571L104.16 129.299L105.154 129.282L115.312 129.453L124.199 129.15L125.212 129.155L125.35 129.4L124.56 129.641L124.698 129.886L167.425 129.085L167.203 128.839L154.188 128.945L153.827 128.454L154.821 128.437L219.242 127L224.832 129.185L223.191 129.693L225.692 130.416L226.996 132.137L225.355 132.645L222.34 132.658C201.908 132.799 151.044 133.898 69.7511 135.956ZM200.003 129.606L199.781 129.361L198.787 129.378L176.178 130.031L176.298 130.258L184.468 130.464L200.003 129.606ZM178.231 128.769L178.092 128.524L173.089 128.568L173.228 128.813L178.231 128.769ZM163.504 130.609L163.282 130.364L154.257 130.42L155.492 130.67L155.63 130.915L163.504 130.609ZM149.388 129.22L133.358 129.339L132.998 128.848L149.028 128.73L149.388 129.22Z" fill="#C4A330"/>
</svg>
